# xmcd
#
# Track frame offsets:
#	150
#	22623
#	39450
#	55064
#	71454
#	94008
#	120703
#	135179
#	156383
#	177405
#	198615
#
# Disc length: 2879 seconds
#
# Revision: 0
# Processed by: cddbd v1.5.2PL0 Copyright (c) Steve Scherf et al.
# Submitted via: EasyCDDAExtractor 16.0.9.1
#
DISCID=8a0b3d0b
DTITLE=Joss Stone - The Soul Sessions Vol 2
DYEAR=1900
DGENRE=
TTITLE0=I Got The?
TTITLE1=(For God?s Sake) Give More Power To The People
TTITLE2=While You?re Out Looking For Sugar
TTITLE3=Sideway Shuffle
TTITLE4=I Don?t Want To Be With Nobody But You
TTITLE5=Teardrops 07- Stoned Out Of My Mind
TTITLE6=Stoned Out Of My Mind - Record y Barbara Acklin
TTITLE7=The Love We Had (Stays On My Mind)
TTITLE8=The High Road
TTITLE9=Pillow Talk
TTITLE10=Then You Can Tell Me Goodbye\nThen You Can Tell Me Goodbye\nThen You 
TTITLE10=Can Tell Me Goodbye\nThen You Can Tell Me Goodbye\n
EXTD=
EXTT0=
EXTT1=
EXTT2=
EXTT3=
EXTT4=
EXTT5=
EXTT6=
EXTT7=
EXTT8=
EXTT9=
EXTT10=
PLAYORDER=
